<?xml version="1.0" encoding="utf-8"?>
<!-- Generator: Adobe Illustrator 22.1.0, SVG Export Plug-In . SVG Version: 6.00 Build 0)  -->
<svg version="1.1" id="Layer_1" xmlns="http://www.w3.org/2000/svg" xmlns:xlink="http://www.w3.org/1999/xlink" x="0px" y="0px"
	 viewBox="0 0 682.7 413.9" style="enable-background:new 0 0 682.7 413.9;" xml:space="preserve">
<style type="text/css">
	.st0{fill:#292929;}
	.st1{fill:#FF0000;}
</style>
<g>
	<path class="st0" d="M100,71.2c0-0.2-0.1-0.4-0.1-0.5c-0.2-0.7-0.5-1.6-1.3-2.7c6.1-11.8,4.1-24.6-5.2-32.4
		c-3.1-2.7-6.7-4.4-10.4-5c8.1-4.9,16.5-9.2,25.3-13.8S126.1,7.5,135,2.2c0.1,0.4,0.3,0.9,0.4,1.3l0.8,3.2L139,5
		c3.6-2.2,7.3-3.3,10.8-3.3c5.6,0,10,2.9,12.8,8.3c5.4,10.3-0.3,19.9-8.3,24.8l-2.4,1.5l1.9,2.1c0.3,0.4,0.7,0.8,1,1.3
		c-9.5,5.9-18.1,12-26.5,18c-8,5.7-15.6,11.1-23.5,16L100,71.2z"/>
	<path class="st0" d="M59.8,121.2c-0.7-11.2-7.2-19.9-17.2-22.5c-1.9-0.5-3.8-0.8-5.8-0.8c-4.5,0-8.8,1.5-12.6,4.4L22,94.2
		c5.9-8,12.2-15.7,18.9-23.7c6.5-7.8,13.2-15.9,19.6-24.5c0.2,0.3,0.5,0.6,0.7,0.9l1.9,2.7l2-2.7c4.1-5.6,9.3-8.8,14.5-8.8
		c3.2,0,6.2,1.2,9,3.6c8.6,7.3,6.7,18.5,1,26.4l-1.7,2.3l2.6,1.2c0.4,0.2,0.9,0.5,1.3,0.7c-6.7,9.3-12.5,18.6-18.2,27.6
		C68.9,107.3,64.5,114.4,59.8,121.2z"/>
	<path class="st0" d="M41.8,196.4c-4.4-8.5-11.7-13.5-20-13.5c-2.3,0-4.5,0.4-6.6,1c-3.9,1.2-7.3,3.3-10,6.3H5.1L0,183.9
		c2.3-10,5.2-19.7,8.2-30.1c3-10.1,6-20.5,8.5-31.2c0.3,0.2,0.7,0.3,1,0.5l2.8,1.6l0.7-3.2c1.1-4.8,3.1-8.8,5.9-11.6
		c2.7-2.8,6.1-4.3,9.7-4.3c1.3,0,2.6,0.2,3.9,0.5c10.5,2.8,13,13.8,10.8,23.6l-0.7,3h3c0.4,0,0.9,0,1.3,0.1
		c-2.5,11.4-4.3,22.5-6,33.2c-1.7,10.3-3.2,20-5.4,29.6L41.8,196.4z"/>
	<path class="st0" d="M17.6,280.8c-2.6-9.9-4.6-19.8-6.7-30.4c-2.1-10.4-4.2-21.2-7-31.9c0.4-0.1,0.9-0.1,1.3-0.1l3-0.1l-0.8-2.9
		c-2.6-9.6-0.5-20.8,10-24c1.5-0.5,3-0.7,4.5-0.7c7.1,0,13.1,5.8,15.6,15.3l0.8,3.1l2.8-1.7c0.3-0.2,0.6-0.4,1-0.6
		c3.1,11.2,6.6,21.7,9.9,31.8c3.3,9.8,6.4,19.2,9,28.7l-2.2,2.9c-0.5,0.1-1,0.3-1.6,0.7c-4.9-4.3-10.5-6.7-16.1-6.7
		c-5.3,0-10.4,2.1-14.6,6.1c-3.4,3.2-5.7,7-6.9,11.3L17.6,280.8z"/>
	<path class="st0" d="M66.6,357.1c-6.2-7.7-11.8-15.9-17.9-24.4c-6-8.5-12.1-17.3-18.8-25.7c0.4-0.3,0.8-0.5,1.3-0.8l2.5-1.4
		l-1.8-2.2c-6.1-7.6-8.5-18.7-0.3-26.5c2.9-2.7,6.1-4.1,9.5-4.1c4.9,0,10.1,2.9,14.2,8l2.1,2.6l1.8-2.8c0.2-0.3,0.4-0.7,0.7-1
		c7.1,8.7,14.4,16.6,21.4,24.2c6.8,7.4,13.3,14.4,19.3,21.9l-1.3,5.7c-1-0.1-2-0.2-3.1-0.2c-9.2,0-16.7,5.1-20.5,14
		c-1.7,3.7-2.4,7.8-2.2,11.9L66.6,357.1z"/>
	<path class="st0" d="M144.8,406.4c-8.5-4.4-16.7-9.3-25.4-14.5c-8.6-5.2-17.5-10.5-26.8-15.3c0.3-0.4,0.6-0.9,0.9-1.3l1.7-2.3
		l-2.6-1.3c-8.4-4.2-14.7-13.3-10-24.1c2.6-6,7.5-9.4,13.6-9.4c3.1,0,6.4,0.9,9.6,2.5l2.9,1.5l0.6-3.2c0.1-0.4,0.2-0.9,0.3-1.4
		c9.8,4.9,19.3,8.9,28.6,12.8c9,3.8,17.5,7.4,25.8,11.5l1.1,6.8c-11.7,3.2-19,13.2-18.3,25.4c0.2,3.3,1,6.6,2.4,9.6L144.8,406.4z"/>
	<path class="st0" d="M175.9,413.9c0-0.5,0.1-1,0.2-1.5l0.5-3l-3,0.2c-0.5,0-1.1,0.1-1.6,0.1c-4.9,0-9.1-1.4-12.2-4.1
		c-3.3-2.8-5.2-6.9-5.4-11.8c-0.3-5.2,1.3-9.6,4.6-12.9c3.1-3.1,7.7-5,12.9-5.3l3-0.2l-0.8-2.9c-0.1-0.5-0.3-1.1-0.4-1.6
		c10.8-0.8,21-2.2,30.9-3.6c9.5-1.3,18.5-2.6,27.6-3.2l0.5,0.6l-0.2,1.9c-0.1,0.7-0.2,2.5,1.4,4.6c-2.5,4.6-3.8,9.5-3.8,14.3
		c0,7.2,2.9,13.5,8.3,18.3c0.2,0.2,0.4,0.3,0.6,0.5l0.1,1.7l-4.1,7.1c-6.9,0.4-13.7,0.5-18.9,0.5l0,0c-3.3,0-6.6,0-9.8,0
		c-3.3,0-6.7,0-10,0C190.5,413.4,183.4,413.5,175.9,413.9z"/>
	<path class="st0" d="M578,73.6c-7.9-4.9-15.5-10.3-23.5-16c-8.4-6-17-12.1-26.5-18c0.3-0.4,0.7-0.9,1-1.3l1.9-2.1l-2.4-1.5
		c-8-4.9-13.7-14.5-8.3-24.8c2.8-5.4,7.3-8.3,12.8-8.3c3.5,0,7.2,1.2,10.7,3.3l2.8,1.7l0.8-3.2c0.1-0.4,0.2-0.9,0.4-1.3
		c8.9,5.3,18,10,26.7,14.6c8.8,4.6,17.1,8.9,25.2,13.8c-3.7,0.7-7.2,2.4-10.4,5C580,43.3,578,56.1,584,67.9c-0.8,1-1.2,1.9-1.3,2.6
		c0,0.2-0.1,0.4-0.1,0.6L578,73.6z"/>
	<path class="st0" d="M622.9,121.2c-4.7-6.8-9.2-13.9-13.8-21.3c-5.6-9-11.5-18.2-18.1-27.5c0.4-0.2,0.9-0.5,1.3-0.7l2.6-1.2
		l-1.7-2.3c-5.7-7.9-7.7-19.1,1-26.4c2.8-2.4,5.8-3.6,9-3.6c5.1,0,10.4,3.2,14.5,8.8l2,2.7l1.9-2.7c0.2-0.3,0.5-0.6,0.7-0.9
		c6.3,8.6,13.1,16.7,19.6,24.5c6.7,8,13,15.7,18.9,23.7l-2.3,8.1c-3.7-2.9-8-4.4-12.6-4.4c-2,0-3.9,0.3-5.8,0.8
		C630.1,101.3,623.7,110,622.9,121.2z"/>
	<path class="st0" d="M639,195.6c-2.1-9.6-3.7-19.4-5.4-29.7c-1.7-10.7-3.5-21.7-6-33.1c0.4,0,0.8-0.1,1.2-0.1h3l-0.6-2.9
		c-2.2-9.7,0.3-20.8,10.8-23.6c1.3-0.4,2.6-0.5,3.9-0.5c7.4,0,13.4,6.1,15.6,15.9l0.7,3.2l2.8-1.6c0.3-0.2,0.7-0.4,1-0.5
		c2.5,10.7,5.6,21.1,8.5,31.2c3,10.3,5.9,20.1,8.2,30.1l-5.1,6.3h-0.1c-2.7-3-6.1-5.1-10-6.3c-2.1-0.7-4.4-1-6.6-1
		c-8.2,0-15.6,5-20,13.5L639,195.6z"/>
	<path class="st0" d="M663.2,281.6c-1.2-4.3-3.5-8.1-6.9-11.3c-4.3-4-9.3-6.1-14.6-6.1c-5.6,0-11.2,2.4-16.1,6.7
		c-0.6-0.3-1.1-0.5-1.6-0.7l-2.2-2.9c2.6-9.5,5.7-18.8,9-28.7c3.4-10.1,6.9-20.6,9.9-31.8c0.3,0.2,0.7,0.4,1,0.6l2.8,1.7l0.8-3.1
		c2.5-9.4,8.5-15.3,15.6-15.3c1.4,0,2.9,0.2,4.5,0.7c10.4,3.2,12.5,14.4,10,24l-0.8,2.9l3,0.1c0.4,0,0.9,0.1,1.3,0.1
		c-2.8,10.7-4.9,21.4-7,31.9c-2.1,10.6-4.1,20.5-6.7,30.4L663.2,281.6z"/>
	<path class="st0" d="M609.2,356.3c0.2-4.1-0.5-8.2-2.2-11.9c-3.9-8.9-11.3-14-20.5-14c-1,0-2.1,0.1-3.1,0.2l-1.3-5.7
		c6-7.4,12.5-14.5,19.3-21.9c7-7.6,14.2-15.5,21.3-24.2c0.2,0.3,0.5,0.7,0.7,1l1.8,2.8l2.1-2.6c4.1-5.1,9.3-8,14.2-8
		c3.4,0,6.6,1.4,9.5,4.1c8.3,7.8,5.8,18.9-0.3,26.5l-1.8,2.2l2.5,1.4c0.4,0.2,0.9,0.5,1.3,0.8c-6.7,8.4-12.8,17.2-18.8,25.7
		c-6,8.6-11.7,16.7-17.9,24.5L609.2,356.3z"/>
	<path class="st0" d="M533.7,403.7c1.4-3,2.2-6.3,2.4-9.6c0.7-12.3-6.6-22.2-18.3-25.4l1.1-6.8c8.3-4.1,16.8-7.7,25.8-11.5
		c9.3-3.9,18.8-7.9,28.6-12.8c0.1,0.4,0.2,0.9,0.3,1.4l0.6,3.2l2.9-1.5c3.2-1.6,6.5-2.5,9.6-2.5c6.1,0,11,3.3,13.6,9.4
		c2,4.7,2.1,9.5,0.2,13.9c-1.9,4.2-5.5,7.8-10.2,10.2l-2.6,1.3l1.7,2.3c0.3,0.4,0.6,0.9,0.9,1.3c-9.3,4.8-18.2,10.1-26.8,15.3
		c-8.7,5.2-16.9,10.1-25.4,14.5L533.7,403.7z"/>
	<path class="st0" d="M506.8,413.9c-7.4-0.4-14.6-0.5-20-0.5c-3.4,0-6.7,0-10,0c-3.2,0-6.6,0-9.8,0c-5.2,0-12-0.1-19-0.5l-4.1-7.1
		l0.1-1.7c0.2-0.1,0.4-0.3,0.6-0.5c5.4-4.8,8.3-11.1,8.3-18.3c0-4.8-1.3-9.7-3.8-14.3c1.6-2.1,1.4-3.9,1.4-4.6l-0.2-1.9l0.5-0.6
		c9.1,0.6,18.1,1.9,27.6,3.2c9.9,1.4,20.2,2.8,31,3.6c-0.1,0.5-0.2,1.1-0.4,1.6l-0.8,2.9l3,0.2c5.2,0.3,9.7,2.2,12.8,5.3
		c3.3,3.3,4.9,7.7,4.6,12.9c-0.3,4.9-2.2,9-5.4,11.8c-3.1,2.7-7.4,4.1-12.2,4.1l0,0c-0.5,0-1.1,0-1.6-0.1l-3.1-0.2l0.5,3
		C506.7,412.8,506.8,413.4,506.8,413.9z"/>
	<path class="st1" d="M335,268.5c-14.9,0-26.9,12.1-26.9,26.9c0,14.9,12.1,26.9,26.9,26.9c0-8.2,6.6-15,14.9-15c2.8,0,5.6,0.8,8,2.3
		c7.9-12.6,4-29.2-8.6-37.1C345,269.9,340.1,268.4,335,268.5L335,268.5z"/>
	<path class="st0" d="M442,370c0,0,3.3-1.7,3.2-2.8c-1.6-16.7-2.6-28.9-4.3-38.7c3.2-10.4,4.8-21.2,4.8-32
		c0-30.1-27.6-105.7-54.9-172.9l27.9,65.1c0,0,26-17.5,26.9-26.9C450.6,113.3,338,0,338,0l0,0c0,0-112.6,113.3-107.8,161.7
		c0.9,9.5,26.9,26.9,26.9,26.9l27.9-65.1c-27.2,67.3-54.8,142.8-54.8,173c0,15.5,3.3,30.8,9.8,44.9c-0.8,7.3-1.6,15.7-2.5,25.8
		c-0.1,1.1,3.2,2.8,3.2,2.8c-7.3,9.6-8.1,21.9,0.8,29.7c8.9,7.8,19.8,4.5,27.1-5.1c0,0,2.2,2.9,3.2,2.8c8.1-0.4,17-0.4,25.8-1.1
		c26.4,10.6,55.9,10.4,82.1-0.5c10.4,1.3,21.4,1.2,31.2,1.6c1,0,3.2-2.8,3.2-2.8c7.3,9.6,18.2,12.9,27.1,5.1S449.3,379.6,442,370z
		 M335,349.3c-6.8,0-13.4-1.3-19.7-3.7l0,0c-14.2-5.6-25.3-17-30.7-31.3l-0.1-0.1c-2.2-6-3.4-12.4-3.4-18.8
		c0-29.8,24.1-53.9,53.9-53.9s53.9,24.1,53.9,53.9S364.8,349.3,335,349.3L335,349.3z"/>
</g>
</svg>
